<svg xmlns="http://www.w3.org/2000/svg" xmlns:xlink="http://www.w3.org/1999/xlink" viewBox="0 0 256 256"><defs><style>.cls-1{fill:#fff;}.cls-2{fill:url(#linear-gradient);}.cls-3{fill:url(#linear-gradient-2);}.cls-4{fill:url(#linear-gradient-3);}</style><linearGradient id="linear-gradient" x1="9.57" y1="90.27" x2="201.02" y2="234.49" gradientUnits="userSpaceOnUse"><stop offset="0" stop-color="#0541a8"/><stop offset="1" stop-color="#04b8e5"/></linearGradient><linearGradient id="linear-gradient-2" x1="34.32" y1="57.43" x2="225.77" y2="201.65" xlink:href="#linear-gradient"/><linearGradient id="linear-gradient-3" x1="59.06" y1="24.58" x2="250.51" y2="168.8" xlink:href="#linear-gradient"/></defs><g id="Layer_2" data-name="Layer 2"><g id="Layer_1-2" data-name="Layer 1"><g id="Circle_Logo" data-name="Circle Logo"><circle class="cls-1" cx="128" cy="128" r="128"/><path class="cls-2" d="M77.24,56.19h0a0,0,0,0,1,0,0V164.64a35.17,35.17,0,0,1-35.17,35.17h0a0,0,0,0,1,0,0V91.36A35.17,35.17,0,0,1,77.24,56.19Z"/><path class="cls-3" d="M110.41,82.52h0a35.17,35.17,0,0,1,35.17,35.17v55.78a0,0,0,0,1,0,0h0a35.17,35.17,0,0,1-35.17-35.17V82.52a0,0,0,0,1,0,0Z"/><path class="cls-4" d="M178.76,56.19h0a35.17,35.17,0,0,1,35.17,35.17V199.81a0,0,0,0,1,0,0h0a35.17,35.17,0,0,1-35.17-35.17V56.19A0,0,0,0,1,178.76,56.19Z"/></g></g></g></svg>