<svg xmlns="http://www.w3.org/2000/svg" xmlns:xlink="http://www.w3.org/1999/xlink" viewBox="0 0 815.57 186.66"><defs><style>.cls-1{fill:url(#linear-gradient);}.cls-2{fill:url(#linear-gradient-2);}.cls-3{fill:url(#linear-gradient-3);}</style><linearGradient id="linear-gradient" x1="-43.5" y1="-1.5" x2="144.57" y2="273.36" gradientUnits="userSpaceOnUse"><stop offset="0" stop-color="#21367f"/><stop offset="0.28" stop-color="#194e91"/><stop offset="0.88" stop-color="#068bc0"/><stop offset="1" stop-color="#0298ca"/></linearGradient><linearGradient id="linear-gradient-2" x1="42.09" y1="2.1" x2="170.54" y2="189.83" xlink:href="#linear-gradient"/><linearGradient id="linear-gradient-3" x1="69.74" y1="-78.98" x2="257.8" y2="195.88" xlink:href="#linear-gradient"/></defs><g id="Layer_2" data-name="Layer 2"><g id="Layer_1-2" data-name="Layer 1"><g id="Circle_Logo" data-name="Circle Logo"><path class="cls-1" d="M42.78,0h0a0,0,0,0,1,0,0V143.88A42.78,42.78,0,0,1,0,186.66H0a0,0,0,0,1,0,0V42.78A42.78,42.78,0,0,1,42.78,0Z"/><path class="cls-2" d="M83.12,34.22h0A42.78,42.78,0,0,1,125.9,77v75.44a0,0,0,0,1,0,0h0a42.78,42.78,0,0,1-42.78-42.78V34.22A0,0,0,0,1,83.12,34.22Z"/><path class="cls-3" d="M166.25,0h0A42.78,42.78,0,0,1,209,42.78V186.66a0,0,0,0,1,0,0h0a42.78,42.78,0,0,1-42.78-42.78V0A0,0,0,0,1,166.25,0Z"/></g><path d="M400.35,63.55v86.64h0a20.68,20.68,0,0,1-20.68-20.69V59.93a.31.31,0,0,0-.61-.08l-5.43,20.26-5.55,20.7-7.69,28.69L359,134.79h0a20.78,20.78,0,0,1-20.07,15.4h-1.19a20.78,20.78,0,0,1-20.07-15.4l0-.15-1.38-5.14-7.69-28.69L303,80.11l-5.46-20.38a.31.31,0,0,0-.61.08V129.5a20.69,20.69,0,0,1-20.69,20.69h0V63.55a26.91,26.91,0,0,1,26.92-26.91H310a3.62,3.62,0,0,1,3.5,2.69l4.13,15.39.7,2.62,6.11,22.77,5.54,20.7,7.6,26.14a.77.77,0,0,0,1.48,0l7.64-26.14,5.54-20.7,6.1-22.77.66-2.47,4.17-15.54a3.62,3.62,0,0,1,3.5-2.69h6.8A26.91,26.91,0,0,1,400.35,63.55Z"/><path d="M435.62,57.34V80.11H477a20.7,20.7,0,0,1,20.7,20.7H435.62V129.5H477a20.69,20.69,0,0,1,20.69,20.69H440.37a25.44,25.44,0,0,1-25.44-25.44V62.08a25.44,25.44,0,0,1,25.44-25.44h57.32A20.69,20.69,0,0,1,477,57.34Z"/><path d="M533,57.34V80.11h41.37a20.7,20.7,0,0,1,20.7,20.7H533V129.5h41.38A20.69,20.69,0,0,1,595,150.19H537.7a25.44,25.44,0,0,1-25.44-25.44V62.08A25.44,25.44,0,0,1,537.7,36.64H595a20.69,20.69,0,0,1-20.69,20.69Z"/><path d="M815.57,93.14a56.66,56.66,0,0,1-92,44.28l.15-.25a21.72,21.72,0,0,1,24.78-9.59,36,36,0,1,0-25.56-34.44,56.38,56.38,0,0,1-5.33,24l-5.14,8.46-1.18,2a56.58,56.58,0,0,1-45,22.25,58.35,58.35,0,0,1-7.64-.51,56.61,56.61,0,0,1-49-57,56.67,56.67,0,0,1,91.81-43.6l-.21.35a22,22,0,0,1-25,9.51,36,36,0,1,0-9.93,70.57,37.94,37.94,0,0,0,4.8-.31,36,36,0,0,0,31.18-35.66A56.4,56.4,0,0,1,709,66.23l2.9-4.78.66-1a56.67,56.67,0,0,1,103,32.65Z"/></g></g></svg>