<svg xmlns="http://www.w3.org/2000/svg" xmlns:xlink="http://www.w3.org/1999/xlink" viewBox="0 0 815.57 174.68"><defs><style>.cls-1{fill:url(#linear-gradient);}.cls-2{fill:url(#linear-gradient-2);}.cls-3{fill:url(#linear-gradient-3);}</style><linearGradient id="linear-gradient" x1="-40.07" y1="38.6" x2="191.76" y2="222.43" gradientUnits="userSpaceOnUse"><stop offset="0" stop-color="#0541a8"/><stop offset="1" stop-color="#04b8e5"/></linearGradient><linearGradient id="linear-gradient-2" x1="-7.98" y1="-1.86" x2="223.85" y2="181.97" xlink:href="#linear-gradient"/><linearGradient id="linear-gradient-3" x1="24.11" y1="-42.33" x2="255.94" y2="141.5" xlink:href="#linear-gradient"/></defs><g id="Layer_2" data-name="Layer 2"><g id="Layer_1-2" data-name="Layer 1"><path d="M400.35,57.56V144.2h0a20.68,20.68,0,0,1-20.68-20.69V53.94a.31.31,0,0,0-.61-.08l-5.43,20.26-5.55,20.69-7.69,28.7L359,128.8h0a20.78,20.78,0,0,1-20.07,15.4h-1.19a20.78,20.78,0,0,1-20.07-15.4l0-.16-1.38-5.13-7.69-28.7L303,74.12l-5.46-20.38a.31.31,0,0,0-.61.08v69.69a20.69,20.69,0,0,1-20.69,20.69h0V57.56a26.91,26.91,0,0,1,26.92-26.91H310a3.62,3.62,0,0,1,3.5,2.68l4.13,15.4.7,2.61,6.11,22.78L330,94.81l7.6,26.15a.77.77,0,0,0,1.48,0l7.64-26.15,5.54-20.69,6.1-22.78.66-2.46,4.17-15.55a3.62,3.62,0,0,1,3.5-2.68h6.8A26.91,26.91,0,0,1,400.35,57.56Z"/><path d="M435.62,51.34V74.12H477a20.69,20.69,0,0,1,20.7,20.69H435.62v28.7H477a20.69,20.69,0,0,1,20.69,20.69H440.37a25.44,25.44,0,0,1-25.44-25.44V56.09a25.44,25.44,0,0,1,25.44-25.44h57.32A20.68,20.68,0,0,1,477,51.34Z"/><path d="M533,51.34V74.12h41.37A20.69,20.69,0,0,1,595,94.81H533v28.7h41.38A20.69,20.69,0,0,1,595,144.2H537.7a25.44,25.44,0,0,1-25.44-25.44V56.09A25.44,25.44,0,0,1,537.7,30.65H595a20.68,20.68,0,0,1-20.69,20.68Z"/><path d="M815.57,87.14a56.66,56.66,0,0,1-92,44.29l.15-.26a21.72,21.72,0,0,1,24.78-9.58,36,36,0,1,0-25.56-34.45,56.39,56.39,0,0,1-5.33,24l-5.14,8.46-1.18,2a56.64,56.64,0,0,1-52.66,21.73,55.9,55.9,0,0,1-15.57-4.44,56.67,56.67,0,1,1,58.36-96.16l-.21.35a22,22,0,0,1-25,9.51,36,36,0,1,0-9.93,70.57,37.94,37.94,0,0,0,4.8-.31,36,36,0,0,0,31.18-35.67A56.39,56.39,0,0,1,709,60.24l2.9-4.78.66-1a56.67,56.67,0,0,1,103,32.64Z"/><path class="cls-1" d="M42.78,0h0a0,0,0,0,1,0,0V131.9A42.78,42.78,0,0,1,0,174.68H0a0,0,0,0,1,0,0V42.78A42.78,42.78,0,0,1,42.78,0Z"/><path class="cls-2" d="M83.12,32h0A42.78,42.78,0,0,1,125.9,74.8v67.85a0,0,0,0,1,0,0h0A42.78,42.78,0,0,1,83.12,99.87V32A0,0,0,0,1,83.12,32Z"/><path class="cls-3" d="M166.25,0h0A42.78,42.78,0,0,1,209,42.78v131.9a0,0,0,0,1,0,0h0a42.78,42.78,0,0,1-42.78-42.78V0A0,0,0,0,1,166.25,0Z"/></g></g></svg>